<?xml version="1.0" encoding="UTF-8"?>
<svg version="1.1" xmlns="http://www.w3.org/2000/svg" width="562" height="562">
    <path
        d="M0 0 C2.60610453 2.24840391 5.16077805 4.5377822 7.6875 6.875 C9.64365405 8.67254696 11.6356886 10.37708349 13.6875 12.0625 C16.94132608 14.81632917 19.67570155 17.91490815 22.421875 21.16796875 C24.8030722 23.93227937 26.94388966 25.96259311 30 28 C30.92652281 29.03584704 31.82023534 30.10155543 32.6875 31.1875 C35.61505731 34.71974169 38.88726758 38.55758525 40.4609375 40.421875 C42 42 44 44 44 44 C46 46.33 46.98 47.66 47 48 C45.52539063 45.54882813 45.52539063 45.54882813 50.15625 49.53125 C54.0382665 54.10648374 58.22140243 58.29794264 62.5 62.5 C66.5895557 66.51639728 70.63760082 70.5111376 74.36328125 74.87109375 C79.68534982 81.06064276 85.66583701 86.63649874 91.52539062 92.31054688 C96.19153589 96.90341933 100.32028426 100.97643149 103 107 C103 110.59190213 102.4766725 112.3135916 100.4375 115.25 C95.30021186 118.93830943 89.63415747 119.51991013 83.53125 118.58984375 C59.11072074 112.89925746 37.87549032 92.60285715 19 77 C-1.84564451 59.3137102 -1.84564451 59.3137102 -25 45 C-26.28583984 44.35224609 -26.28583984 44.35224609 -27.59765625 43.69140625 C-39.12479451 38.89810703 -55.11333571 38.56469091 -66.75488281 43.15576172 C-69.95090404 44.60828531 -72.95760012 46.24263203 -76 48 C-76.94359375 48.52851563 -77.8871875 49.05703125 -78.859375 49.6015625 C-90.4029754 56.53455327 -100.99544029 65.26463004 -111.3125 73.875 C-128.99967075 88.59797732 -147.27995026 101.01343397 -168 111 C-168.71671875 111.38285156 -169.4334375 111.76570313 -170.171875 112.16015625 C-172 113 -175 115 -177.5625 114.9 C-180.11295563 115.26535587 -179.11295563 115.56535587 -182 116 C-210.73851614 121.19460488 -238.8027687 113.3607253 -264 102 C-264.71381836 101.68160156 -265.42763672 101.36320312 -266.16308594 101.03515625 C-291.92359467 89.37093342 -324.11165816 67.40397429 -336.0625 40.8125 C-339.12959463 32.55744742 -339.92621352 25.36061007 -337 17 C-332.38864251 8.13200482 -324.43422536 4.2772868 -315.34375 1.03515625 C-289.30725654 -7.0252068 -263.83438113 0.24952787 -240.41088867 12.26782227 C-233.90124679 15.70251987 -227.57023415 19.41874154 -221.25 23.1875 C-202.72542829 34.18909339 -184.98884157 40.18277414 -163.54833984 34.96411133 C-147.10642771 30.52010567 -133.09603996 20.17893394 -119 11 C-83.03948148 -12.38352975 -38.33718515 -31.07396226 0 0 Z "
        fill="#E5F5F7" transform="translate(416,277)" />
    <path
        d="M0 0 C9.01816111 9.3908124 13.52405602 20.05230617 13.64453125 33.09375 C12.97901121 48.23433086 7.91636503 60.02300791 -3.13671875 70.5234375 C-14.87134216 80.13289289 -27.57114897 82.88961828 -42.38671875 81.7109375 C-55.63491393 79.22224392 -66.81456041 72.25156839 -75.00390625 61.609375 C-82.06310718 51.10837461 -85.03873122 37.21636308 -82.87890625 24.7890625 C-80.10008128 12.20449886 -74.41833928 1.75735941 -63.96875 -6.109375 C-42.62252291 -19.61620868 -18.24368922 -17.49722075 0 0 Z "
        fill="#E5F5F7" transform="translate(148.38671875,174.2890625)" />
</svg>